<?xml version="1.0" encoding="UTF-8"?>
<svg width="40" height="40" viewBox="0 0 40 40" fill="none" xmlns="http://www.w3.org/2000/svg">
  <!-- Feuille principale -->
  <path d="M20 5C13 5 8 10 8 17C8 24 13 29 20 29C27 29 32 24 32 17C32 10 27 5 20 5Z" fill="#4CAF50"/>
  
  <!-- Tige -->
  <path d="M19 28L19 35" stroke="#2E7D32" stroke-width="2" stroke-linecap="round"/>
  
  <!-- Nervures de la feuille -->
  <path d="M20 10C16 13 15 17 15 20M20 10C24 13 25 17 25 20" stroke="#2E7D32" stroke-width="1.5" stroke-linecap="round"/>
  
  <!-- Petites feuilles -->
  <path d="M14 15C12 15 11 16 11 18C11 20 12 21 14 21C16 21 17 20 17 18C17 16 16 15 14 15Z" fill="#66BB6A"/>
  <path d="M26 15C24 15 23 16 23 18C23 20 24 21 26 21C28 21 29 20 29 18C29 16 28 15 26 15Z" fill="#66BB6A"/>
</svg>
